# xmcd
#
# Track frame offsets: 
#        150
#        4723
#        27083
#        27564
#        32872
#        33472
#        55807
#        56111
#        62072
#        62938
#        82826
#        83756
#        87759
#        88157
#        115301
#        115903
#        120518
#        120945
#        123945
#        124855
#        140457
#        140846
#        144073
#
# Disc length: 2077 seconds
#
# Revision: 0
# Processed by: cddbd v1.4PL0 Copyright (c) Steve Scherf et al.
# Submitted via: ExactAudioCopy v0.95a3
#
DISCID=39081b17
DTITLE=Cory Morrow - Talkin' Outside The Lines
DYEAR=2002
DGENRE=Country
TTITLE0=Intro with music from Sunday Driving
TTITLE1=Answer and song Outside The Lines
TTITLE2=Questions: challenges and rewards
TTITLE3=Answer
TTITLE4=Question: spiritual element - In Spite of Spite
TTITLE5=Answer and song In Spite of Spite
TTITLE6=Question: music your calling
TTITLE7=Answer
TTITLE8=Question: energy of Dance By The Rio Grande
TTITLE9=Answer and song Dance By The Rio Grande
TTITLE10=Question: challenge yourself
TTITLE11=Answer
TTITLE12=Question: lyrics to Drinkin' Alone
TTITLE13=Answer and song Drinkin' Alone
TTITLE14=Question: goals when making the record
TTITLE15=Answer
TTITLE16=Question: live shows or studio
TTITLE17=Answer
TTITLE18=Question: about Love Me Like You Used To Do
TTITLE19=Answer and live performance
TTITLE20=Question: to get out of the record
TTITLE21=Answer
TTITLE22=Outro with credits
EXTD=
EXTT0=
EXTT1=
EXTT2=
EXTT3=
EXTT4=
EXTT5=
EXTT6=
EXTT7=
EXTT8=
EXTT9=
EXTT10=
EXTT11=
EXTT12=
EXTT13=
EXTT14=
EXTT15=
EXTT16=
EXTT17=
EXTT18=
EXTT19=
EXTT20=
EXTT21=
EXTT22=
PLAYORDER=
